<svg xmlns="http://www.w3.org/2000/svg" width="1123" height="934" stroke="#000" stroke-linecap="round" stroke-linejoin="round" fill="#fff" fill-rule="evenodd"><defs><linearGradient id="A" x1="50%" x2="50%" y1="0%" y2="98.84%"><stop offset="0%" stop-color="#f4f7fb"/><stop offset="52.341%" stop-color="#a5c0f3"/><stop offset="100%" stop-color="#f4f7fb"/></linearGradient><linearGradient id="B" x1="0%" y1="0%" x2="100%" y2="100%"><stop offset="0%" stop-color="#e5ffff"/><stop offset="100%" stop-color="#67b6ff"/></linearGradient></defs><g fill-rule="nonzero" stroke="none"><path d="M460.0814 582.7802v-1h-2v1h2zm-6 0v-1h-2v1h2zm-6 0v-1h-2v1h2zm-6 0v-1h-2v1h2zm-6 0v-1h-2v1h2zm-6 0v-1h-2v1h2zm-6 0v-1h-2v1h2zm-6 0v-1h-2v1h2zm-6 0v-1h-2v1h2zm-6 0v-1h-2v1h2zm-6 0v-1h-2v1h2zm-6 0v-1h-2v1h2zm-6 0v-1h-2v1h2zm-6 0v-1h-2v1h2zm-6 0v-1h-2v1h2zm-6 0v-1h-2v1h2zm-6 0v-1h-2v1h2zm-6 0v-1h-2v1h2zm-6 0v-1h-2v1h2zm-6 0v-1h-2v1h2zm-6 0v-1h-2v1h2zm-6 0v-1h-2v1h2zm-6 0v-1h-2v1h2zm-6 0v-1h-2v1h2zm-6 0v-1h-2v1h2zm-6 0v-1h-2v1h2zm-6 0v-1h-2v1h2zm-6 0v-1h-2v1h2zm-6 0v-1h-2v1h2zm-6 0v-1h-2v1h2zm-6 0v-1h-2v1h2zm-6 0v-1h-2v1h2zm-6 0v-1h-2v1h2zm-6 0v-1h-2v1h2zm-6 0v-1h-2v1h2zm-6 0v-1h-2v1h2zm-6 0v-1h-2v1h2zm-6 0v-1h-2v1h2zm-6 0v-1h-2v1h2zm228 44v-1h-2v1h2zm-6 0v-1h-2v1h2zm-6 0v-1h-2v1h2zm-6 0v-1h-2v1h2zm-6 0v-1h-2v1h2zm-6 0v-1h-2v1h2zm-6 0v-1h-2v1h2zm-6 0v-1h-2v1h2zm-6 0v-1h-2v1h2zm-6 0v-1h-2v1h2zm-6 0v-1h-2v1h2zm-6 0v-1h-2v1h2zm-6 0v-1h-2v1h2zm-6 0v-1h-2v1h2zm-6 0v-1h-2v1h2zm-6 0v-1h-2v1h2zm-6 0v-1h-2v1h2zm-6 0v-1h-2v1h2zm-6 0v-1h-2v1h2zm-6 0v-1h-2v1h2zm-6 0v-1h-2v1h2zm-6 0v-1h-2v1h2zm-6 0v-1h-2v1h2zm-6 0v-1h-2v1h2zm-6 0v-1h-2v1h2zm-6 0v-1h-2v1h2zm-6 0v-1h-2v1h2zm-6 0v-1h-2v1h2zm-6 0v-1h-2v1h2zm-6 0v-1h-2v1h2zm-6 0v-1h-2v1h2zm-6 0v-1h-2v1h2zm-6 0v-1h-2v1h2zm-6 0v-1h-2v1h2zm-6 0v-1h-2v1h2zm-6 0v-1h-2v1h2zm-6 0v-1h-2v1h2zm-6 0v-1h-2v1h2zm-6 0v-1h-2v1h2z" fill="url(#A)"/><path d="M317.6694 562.2802v13.5h-1v-13.5z" fill="#a5bff1"/><path d="M317.6694 574.7802v1h-14.5v-1z" fill="#a5c0f2"/><path d="M416.6694 646.2802v-13.5h1v13.5z" fill="#a5bff1"/><path d="M416.6694 633.7802v-1h14.5v1z" fill="#a5c0f2"/><path d="M324.6694 552.7802h-1v2h1v-2zm0 6h-1v2h1v-2zm0 6h-1v2h1v-2zm0 6h-1v2h1v-2zm0 6h-1v2h1v-2zm0 6h-1v2h1v-2zm0 6h-1v2h1v-2zm0 6h-1v2h1v-2zm0 6h-1v2h1v-2zm0 6h-1v2h1v-2zm0 6h-1v2h1v-2zm0 6h-1v2h1v-2zm0 6h-1v2h1v-2zm0 6h-1v2h1v-2zm0 6h-1v2h1v-2zm0 6h-1v2h1v-2zm0 6h-1v2h1v-2zm0 6h-1v2h1v-2zm86-102h-1v2h1v-2zm0 6h-1v2h1v-2zm0 6h-1v2h1v-2zm0 6h-1v2h1v-2zm0 6h-1v2h1v-2zm0 6h-1v2h1v-2zm0 6h-1v2h1v-2zm0 6h-1v2h1v-2zm0 6h-1v2h1v-2zm0 6h-1v2h1v-2zm0 6h-1v2h1v-2zm0 6h-1v2h1v-2zm0 6h-1v2h1v-2zm0 6h-1v2h1v-2zm0 6h-1v2h1v-2zm0 6h-1v2h1v-2zm0 6h-1v2h1v-2zm0 6h-1v2h1v-2z" fill="url(#A)"/></g><path d="M949.4664 559.0655c0 .77-.6266 1.3966-1.3986 1.3966s-1.3984-.6257-1.3984-1.3966.6266-1.3965 1.3984-1.3965 1.3986.6256 1.3986 1.3965m18.7313 0c0 .77-.6266 1.3966-1.3985 1.3966s-1.3985-.6257-1.3985-1.3966.6265-1.3965 1.3985-1.3965 1.3985.6256 1.3985 1.3965m18.7312 0c0 .77-.6256 1.3966-1.3984 1.3966a1.398 1.398 0 0 1-1.3986-1.3966c0-.771.6266-1.3965 1.3986-1.3965s1.3984.6256 1.3984 1.3965m18.7313 0c0 .77-.6254 1.3966-1.3984 1.3966s-1.3986-.6257-1.3986-1.3966.6266-1.3965 1.3986-1.3965 1.3984.6256 1.3984 1.3965m18.7314 0c0 .77-.6256 1.3966-1.3985 1.3966s-1.3985-.6257-1.3985-1.3966.6266-1.3965 1.3985-1.3965 1.3985.6256 1.3985 1.3965m18.732 0c0 .77-.6264 1.3966-1.3984 1.3966a1.398 1.398 0 0 1-1.3986-1.3966c0-.77.6257-1.3965 1.3986-1.3965s1.3984.6256 1.3984 1.3965m18.7314 0c0 .77-.6266 1.3966-1.3986 1.3966s-1.3984-.6257-1.3984-1.3966.6256-1.3965 1.3984-1.3965 1.3986.6256 1.3986 1.3965m-103.7437 14.3893c0 .77-.6256 1.3965-1.3984 1.3965s-1.3986-.6256-1.3986-1.3965.6266-1.3966 1.3986-1.3966 1.3984.6247 1.3984 1.3966m18.7313 0c0 .77-.6256 1.3965-1.3985 1.3965s-1.3985-.6256-1.3985-1.3965.6265-1.3966 1.3985-1.3966 1.3985.6247 1.3985 1.3966m18.7322 0c0 .77-.6266 1.3965-1.3985 1.3965s-1.3985-.6256-1.3985-1.3965.6256-1.3966 1.3985-1.3966 1.3985.6247 1.3985 1.3966m18.7312 0c0 .77-.6264 1.3965-1.3984 1.3965s-1.3985-.6256-1.3985-1.3965a1.397 1.397 0 0 1 1.3985-1.3966c.772 0 1.3984.6247 1.3984 1.3966m18.7313 0c0 .77-.6264 1.3965-1.3984 1.3965s-1.3986-.6256-1.3986-1.3965a1.398 1.398 0 1 1 2.797 0m18.7314 0c0 .77-.6266 1.3965-1.3986 1.3965s-1.3984-.6256-1.3984-1.3965.6264-1.3966 1.3984-1.3966 1.3986.6247 1.3986 1.3966m18.7313 0c0 .77-.6266 1.3965-1.3986 1.3965s-1.3984-.6256-1.3984-1.3965.6266-1.3966 1.3984-1.3966a1.398 1.398 0 0 1 1.3986 1.3966m-121.0337 15.8276c0 .77-.6266 1.3965-1.3986 1.3965s-1.3984-.6256-1.3984-1.3965.6266-1.3966 1.3984-1.3966a1.398 1.398 0 0 1 1.3986 1.3966m18.7313 0c0 .77-.6266 1.3965-1.3985 1.3965s-1.3985-.6256-1.3985-1.3965.6265-1.3966 1.3985-1.3966 1.3985.6248 1.3985 1.3966m18.7312 0c0 .77-.6256 1.3965-1.3984 1.3965s-1.3986-.6256-1.3986-1.3965.6266-1.3966 1.3986-1.3966 1.3984.6248 1.3984 1.3966m18.7313 0c0 .77-.6254 1.3965-1.3984 1.3965s-1.3986-.6256-1.3986-1.3965.6266-1.3966 1.3986-1.3966a1.397 1.397 0 0 1 1.3984 1.3966m18.7314 0c0 .77-.6256 1.3965-1.3985 1.3965s-1.3985-.6256-1.3985-1.3965.6266-1.3966 1.3985-1.3966 1.3985.6248 1.3985 1.3966m18.732 0c0 .77-.6264 1.3965-1.3984 1.3965s-1.3986-.6256-1.3986-1.3965a1.398 1.398 0 0 1 1.3986-1.3966c.773 0 1.3984.6248 1.3984 1.3966m18.7314 0c0 .77-.6266 1.3965-1.3986 1.3965s-1.3984-.6256-1.3984-1.3965.6256-1.3966 1.3984-1.3966 1.3986.6248 1.3986 1.3966m-103.7437 14.3883c0 .77-.6256 1.3965-1.3984 1.3965s-1.3986-.6256-1.3986-1.3965.6266-1.3966 1.3986-1.3966 1.3984.6257 1.3984 1.3966m18.7313 0c0 .77-.6256 1.3965-1.3985 1.3965s-1.3985-.6256-1.3985-1.3965.6265-1.3966 1.3985-1.3966 1.3985.6257 1.3985 1.3966m18.7322 0c0 .77-.6266 1.3965-1.3985 1.3965s-1.3985-.6256-1.3985-1.3965.6256-1.3966 1.3985-1.3966 1.3985.6257 1.3985 1.3966m18.7312 0c0 .77-.6264 1.3965-1.3984 1.3965s-1.3985-.6256-1.3985-1.3965.6255-1.3966 1.3985-1.3966 1.3984.6257 1.3984 1.3966m18.7313 0c0 .77-.6264 1.3965-1.3984 1.3965s-1.3986-.6256-1.3986-1.3965a1.398 1.398 0 0 1 1.3986-1.3966c.772 0 1.3984.6257 1.3984 1.3966m18.7314 0c0 .77-.6266 1.3965-1.3986 1.3965s-1.3984-.6256-1.3984-1.3965.6264-1.3966 1.3984-1.3966 1.3986.6257 1.3986 1.3966m18.7313 0c0 .77-.6266 1.3965-1.3986 1.3965s-1.3984-.6256-1.3984-1.3965.6266-1.3966 1.3984-1.3966 1.3986.6257 1.3986 1.3966m-121.0337 15.8276c0 .77-.6266 1.3965-1.3986 1.3965s-1.3984-.6256-1.3984-1.3965.6266-1.3966 1.3984-1.3966 1.3986.6256 1.3986 1.3966m18.7313 0c0 .77-.6266 1.3965-1.3985 1.3965s-1.3985-.6256-1.3985-1.3965.6265-1.3966 1.3985-1.3966 1.3985.6256 1.3985 1.3966m18.7312 0c0 .77-.6256 1.3965-1.3984 1.3965s-1.3986-.6256-1.3986-1.3965.6266-1.3966 1.3986-1.3966 1.3984.6256 1.3984 1.3966m18.7313 0c0 .77-.6254 1.3965-1.3984 1.3965s-1.3986-.6256-1.3986-1.3965.6266-1.3966 1.3986-1.3966 1.3984.6256 1.3984 1.3966m18.7314 0c0 .77-.6256 1.3965-1.3985 1.3965s-1.3985-.6256-1.3985-1.3965.6266-1.3966 1.3985-1.3966 1.3985.6256 1.3985 1.3966m18.732 0c0 .77-.6264 1.3965-1.3984 1.3965s-1.3986-.6256-1.3986-1.3965a1.398 1.398 0 0 1 1.3986-1.3966c.773 0 1.3984.6256 1.3984 1.3966m18.7314 0c0 .77-.6266 1.3965-1.3986 1.3965s-1.3984-.6256-1.3984-1.3965.6256-1.3966 1.3984-1.3966a1.398 1.398 0 0 1 1.3986 1.3966M958.111 633.8866c0 .7718-.6256 1.3965-1.3984 1.3965s-1.3986-.6247-1.3986-1.3965.6266-1.3966 1.3986-1.3966 1.3984.6257 1.3984 1.3966m18.7313 0c0 .7718-.6256 1.3965-1.3985 1.3965s-1.3985-.6247-1.3985-1.3965.6265-1.3966 1.3985-1.3966 1.3985.6257 1.3985 1.3966m18.7322 0c0 .7718-.6266 1.3965-1.3985 1.3965s-1.3985-.6247-1.3985-1.3965.6256-1.3966 1.3985-1.3966 1.3985.6257 1.3985 1.3966m18.7312 0c0 .7718-.6264 1.3965-1.3984 1.3965a1.397 1.397 0 0 1-1.3985-1.3965c0-.77.6255-1.3966 1.3985-1.3966s1.3984.6257 1.3984 1.3966m18.7313 0c0 .7718-.6264 1.3965-1.3984 1.3965s-1.3986-.6247-1.3986-1.3965a1.398 1.398 0 0 1 1.3986-1.3966c.772 0 1.3984.6257 1.3984 1.3966m18.7314 0c0 .7718-.6266 1.3965-1.3986 1.3965s-1.3984-.6247-1.3984-1.3965.6264-1.3966 1.3984-1.3966 1.3986.6257 1.3986 1.3966m18.7313 0c0 .7718-.6266 1.3965-1.3986 1.3965s-1.3984-.6247-1.3984-1.3965.6266-1.3966 1.3984-1.3966 1.3986.6257 1.3986 1.3966M949.4664 649.714c0 .772-.6266 1.3966-1.3986 1.3966s-1.3984-.6247-1.3984-1.3966.6266-1.3965 1.3984-1.3965 1.3986.6257 1.3986 1.3965m18.7313 0c0 .772-.6266 1.3966-1.3985 1.3966s-1.3985-.6247-1.3985-1.3966.6265-1.3965 1.3985-1.3965 1.3985.6257 1.3985 1.3965m18.7312 0a1.397 1.397 0 0 1-1.3984 1.3966c-.7728 0-1.3986-.6247-1.3986-1.3966s.6266-1.3965 1.3986-1.3965 1.3984.6257 1.3984 1.3965m18.7313 0a1.397 1.397 0 0 1-1.3984 1.3966c-.772 0-1.3986-.6247-1.3986-1.3966s.6266-1.3965 1.3986-1.3965 1.3984.6257 1.3984 1.3965m18.7314 0a1.397 1.397 0 0 1-1.3985 1.3966c-.773 0-1.3985-.6247-1.3985-1.3966s.6266-1.3965 1.3985-1.3965 1.3985.6257 1.3985 1.3965m18.732 0c0 .772-.6264 1.3966-1.3984 1.3966s-1.3986-.6247-1.3986-1.3966.6257-1.3965 1.3986-1.3965 1.3984.6257 1.3984 1.3965m18.7314 0c0 .772-.6266 1.3966-1.3986 1.3966s-1.3984-.6247-1.3984-1.3966a1.397 1.397 0 1 1 2.797 0m-103.7437 14.3893c0 .77-.6256 1.3965-1.3984 1.3965s-1.3986-.6256-1.3986-1.3965.6266-1.3966 1.3986-1.3966 1.3984.6257 1.3984 1.3966m18.7313 0c0 .77-.6256 1.3965-1.3985 1.3965s-1.3985-.6256-1.3985-1.3965.6265-1.3966 1.3985-1.3966 1.3985.6257 1.3985 1.3966m18.7322 0c0 .77-.6266 1.3965-1.3985 1.3965s-1.3985-.6256-1.3985-1.3965.6256-1.3966 1.3985-1.3966 1.3985.6257 1.3985 1.3966m18.7312 0c0 .77-.6264 1.3965-1.3984 1.3965s-1.3985-.6256-1.3985-1.3965.6255-1.3966 1.3985-1.3966 1.3984.6257 1.3984 1.3966m18.7313 0c0 .77-.6264 1.3965-1.3984 1.3965s-1.3986-.6256-1.3986-1.3965a1.398 1.398 0 0 1 1.3986-1.3966c.772 0 1.3984.6257 1.3984 1.3966m18.7314 0c0 .77-.6266 1.3965-1.3986 1.3965s-1.3984-.6256-1.3984-1.3965.6264-1.3966 1.3984-1.3966 1.3986.6257 1.3986 1.3966m18.7313 0c0 .77-.6266 1.3965-1.3986 1.3965s-1.3984-.6256-1.3984-1.3965.6266-1.3966 1.3984-1.3966 1.3986.6257 1.3986 1.3966M134.4664 239.0655c0 .77-.6265 1.3966-1.3985 1.3966s-1.3985-.6257-1.3985-1.3966.6265-1.3965 1.3985-1.3965 1.3985.6257 1.3985 1.3965m18.7313 0c0 .77-.6266 1.3966-1.3985 1.3966s-1.3985-.6257-1.3985-1.3966.6265-1.3965 1.3985-1.3965 1.3985.6257 1.3985 1.3965m18.7312 0c0 .77-.6256 1.3966-1.3985 1.3966s-1.3985-.6257-1.3985-1.3966.6266-1.3965 1.3985-1.3965 1.3985.6257 1.3985 1.3965m18.7314 0c0 .77-.6256 1.3966-1.3985 1.3966s-1.3985-.6257-1.3985-1.3966.6265-1.3965 1.3985-1.3965 1.3985.6257 1.3985 1.3965m18.7313 0c0 .77-.6256 1.3966-1.3985 1.3966s-1.3985-.6257-1.3985-1.3966.6265-1.3965 1.3985-1.3965 1.3985.6257 1.3985 1.3965m18.732 0c0 .77-.6264 1.3966-1.3984 1.3966s-1.3985-.6257-1.3985-1.3966.6256-1.3965 1.3985-1.3965 1.3984.6257 1.3984 1.3965m18.7314 0c0 .77-.6266 1.3966-1.3985 1.3966s-1.3985-.6257-1.3985-1.3966.6256-1.3965 1.3985-1.3965 1.3985.6257 1.3985 1.3965m-103.7437 14.3893c0 .77-.6256 1.3965-1.3985 1.3965s-1.3985-.6256-1.3985-1.3965.6265-1.3966 1.3985-1.3966 1.3985.6248 1.3985 1.3966m18.7313 0c0 .77-.6256 1.3965-1.3985 1.3965s-1.3985-.6256-1.3985-1.3965.6265-1.3966 1.3985-1.3966 1.3985.6248 1.3985 1.3966m18.7322 0c0 .77-.6265 1.3965-1.3985 1.3965s-1.3985-.6256-1.3985-1.3965.6256-1.3966 1.3985-1.3966 1.3985.6248 1.3985 1.3966m18.7313 0c0 .77-.6265 1.3965-1.3985 1.3965s-1.3985-.6256-1.3985-1.3965.6256-1.3966 1.3985-1.3966 1.3985.6248 1.3985 1.3966m18.7312 0c0 .77-.6265 1.3965-1.3985 1.3965s-1.3985-.6256-1.3985-1.3965a1.398 1.398 0 0 1 1.3985-1.3966c.7728 0 1.3985.6248 1.3985 1.3966m18.7313 0c0 .77-.6265 1.3965-1.3985 1.3965s-1.3985-.6256-1.3985-1.3965.6265-1.3966 1.3985-1.3966 1.3985.6248 1.3985 1.3966m18.7314 0c0 .77-.6265 1.3965-1.3985 1.3965s-1.3985-.6256-1.3985-1.3965.6265-1.3966 1.3985-1.3966 1.3985.6248 1.3985 1.3966m-121.0337 15.8276c0 .77-.6265 1.3965-1.3985 1.3965s-1.3985-.6256-1.3985-1.3965.6265-1.3966 1.3985-1.3966 1.3985.6247 1.3985 1.3966m18.7313 0c0 .77-.6266 1.3965-1.3985 1.3965s-1.3985-.6256-1.3985-1.3965.6265-1.3966 1.3985-1.3966 1.3985.6247 1.3985 1.3966m18.7312 0c0 .77-.6256 1.3965-1.3985 1.3965s-1.3985-.6256-1.3985-1.3965.6266-1.3966 1.3985-1.3966 1.3985.6247 1.3985 1.3966m18.7314 0c0 .77-.6256 1.3965-1.3985 1.3965s-1.3985-.6256-1.3985-1.3965.6265-1.3966 1.3985-1.3966 1.3985.6247 1.3985 1.3966m18.7313 0c0 .77-.6256 1.3965-1.3985 1.3965s-1.3985-.6256-1.3985-1.3965.6265-1.3966 1.3985-1.3966 1.3985.6247 1.3985 1.3966m18.732 0c0 .77-.6264 1.3965-1.3984 1.3965s-1.3985-.6256-1.3985-1.3965.6256-1.3966 1.3985-1.3966a1.397 1.397 0 0 1 1.3984 1.3966m18.7314 0c0 .77-.6266 1.3965-1.3985 1.3965s-1.3985-.6256-1.3985-1.3965.6256-1.3966 1.3985-1.3966 1.3985.6247 1.3985 1.3966m-103.7437 14.3883c0 .77-.6256 1.3965-1.3985 1.3965s-1.3985-.6256-1.3985-1.3965.6265-1.3966 1.3985-1.3966 1.3985.6257 1.3985 1.3966m18.7313 0c0 .77-.6256 1.3965-1.3985 1.3965s-1.3985-.6256-1.3985-1.3965.6265-1.3966 1.3985-1.3966 1.3985.6257 1.3985 1.3966m18.7322 0c0 .77-.6265 1.3965-1.3985 1.3965s-1.3985-.6256-1.3985-1.3965.6256-1.3966 1.3985-1.3966 1.3985.6257 1.3985 1.3966m18.7313 0c0 .77-.6265 1.3965-1.3985 1.3965s-1.3985-.6256-1.3985-1.3965.6256-1.3966 1.3985-1.3966 1.3985.6257 1.3985 1.3966m18.7312 0c0 .77-.6265 1.3965-1.3985 1.3965s-1.3985-.6256-1.3985-1.3965a1.398 1.398 0 0 1 1.3985-1.3966c.772 0 1.3985.6257 1.3985 1.3966m18.7313 0c0 .77-.6265 1.3965-1.3985 1.3965s-1.3985-.6256-1.3985-1.3965.6265-1.3966 1.3985-1.3966 1.3985.6257 1.3985 1.3966m18.7314 0c0 .77-.6265 1.3965-1.3985 1.3965s-1.3985-.6256-1.3985-1.3965.6265-1.3966 1.3985-1.3966 1.3985.6257 1.3985 1.3966m-121.0337 15.8276c0 .77-.6265 1.3965-1.3985 1.3965s-1.3985-.6256-1.3985-1.3965.6265-1.3966 1.3985-1.3966 1.3985.6256 1.3985 1.3966m18.7313 0c0 .77-.6266 1.3965-1.3985 1.3965s-1.3985-.6256-1.3985-1.3965.6265-1.3966 1.3985-1.3966 1.3985.6256 1.3985 1.3966m18.7312 0c0 .77-.6256 1.3965-1.3985 1.3965s-1.3985-.6256-1.3985-1.3965.6266-1.3966 1.3985-1.3966 1.3985.6256 1.3985 1.3966m18.7314 0c0 .77-.6256 1.3965-1.3985 1.3965s-1.3985-.6256-1.3985-1.3965.6265-1.3966 1.3985-1.3966 1.3985.6256 1.3985 1.3966m18.7313 0c0 .77-.6256 1.3965-1.3985 1.3965s-1.3985-.6256-1.3985-1.3965.6265-1.3966 1.3985-1.3966 1.3985.6256 1.3985 1.3966m18.732 0c0 .77-.6264 1.3965-1.3984 1.3965s-1.3985-.6256-1.3985-1.3965.6256-1.3966 1.3985-1.3966 1.3984.6256 1.3984 1.3966m18.7314 0c0 .77-.6266 1.3965-1.3985 1.3965s-1.3985-.6256-1.3985-1.3965.6256-1.3966 1.3985-1.3966 1.3985.6256 1.3985 1.3966M143.111 313.8866c0 .7718-.6256 1.3965-1.3985 1.3965s-1.3985-.6247-1.3985-1.3965.6265-1.3966 1.3985-1.3966 1.3985.6257 1.3985 1.3966m18.7313 0c0 .7718-.6256 1.3965-1.3985 1.3965s-1.3985-.6247-1.3985-1.3965.6265-1.3966 1.3985-1.3966 1.3985.6257 1.3985 1.3966m18.7322 0c0 .7718-.6265 1.3965-1.3985 1.3965s-1.3985-.6247-1.3985-1.3965.6256-1.3966 1.3985-1.3966 1.3985.6257 1.3985 1.3966m18.7313 0c0 .7718-.6265 1.3965-1.3985 1.3965s-1.3985-.6247-1.3985-1.3965.6256-1.3966 1.3985-1.3966 1.3985.6257 1.3985 1.3966m18.7312 0c0 .7718-.6265 1.3965-1.3985 1.3965s-1.3985-.6247-1.3985-1.3965a1.398 1.398 0 0 1 1.3985-1.3966c.772 0 1.3985.6257 1.3985 1.3966m18.7313 0c0 .7718-.6265 1.3965-1.3985 1.3965s-1.3985-.6247-1.3985-1.3965.6265-1.3966 1.3985-1.3966 1.3985.6257 1.3985 1.3966m18.7314 0c0 .7718-.6265 1.3965-1.3985 1.3965s-1.3985-.6247-1.3985-1.3965.6265-1.3966 1.3985-1.3966 1.3985.6257 1.3985 1.3966M134.4664 329.714c0 .772-.6265 1.3966-1.3985 1.3966s-1.3985-.6247-1.3985-1.3966.6265-1.3965 1.3985-1.3965 1.3985.6257 1.3985 1.3965m18.7313 0c0 .772-.6266 1.3966-1.3985 1.3966s-1.3985-.6247-1.3985-1.3966.6265-1.3965 1.3985-1.3965 1.3985.6257 1.3985 1.3965m18.7312 0a1.397 1.397 0 0 1-1.3985 1.3966c-.773 0-1.3985-.6247-1.3985-1.3966s.6266-1.3965 1.3985-1.3965 1.3985.6257 1.3985 1.3965m18.7314 0a1.397 1.397 0 0 1-1.3985 1.3966c-.773 0-1.3985-.6247-1.3985-1.3966s.6265-1.3965 1.3985-1.3965 1.3985.6257 1.3985 1.3965m18.7313 0a1.397 1.397 0 0 1-1.3985 1.3966c-.773 0-1.3985-.6247-1.3985-1.3966s.6265-1.3965 1.3985-1.3965 1.3985.6257 1.3985 1.3965m18.732 0c0 .772-.6264 1.3966-1.3984 1.3966s-1.3985-.6247-1.3985-1.3966a1.397 1.397 0 0 1 1.3985-1.3965c.773 0 1.3984.6257 1.3984 1.3965m18.7314 0c0 .772-.6266 1.3966-1.3985 1.3966s-1.3985-.6247-1.3985-1.3966a1.397 1.397 0 0 1 1.3985-1.3965c.773 0 1.3985.6257 1.3985 1.3965m-103.7437 14.3893c0 .77-.6256 1.3965-1.3985 1.3965s-1.3985-.6256-1.3985-1.3965.6265-1.3966 1.3985-1.3966 1.3985.6257 1.3985 1.3966m18.7313 0c0 .77-.6256 1.3965-1.3985 1.3965s-1.3985-.6256-1.3985-1.3965.6265-1.3966 1.3985-1.3966 1.3985.6257 1.3985 1.3966m18.7322 0c0 .77-.6265 1.3965-1.3985 1.3965s-1.3985-.6256-1.3985-1.3965.6256-1.3966 1.3985-1.3966 1.3985.6257 1.3985 1.3966m18.7313 0c0 .77-.6265 1.3965-1.3985 1.3965s-1.3985-.6256-1.3985-1.3965.6256-1.3966 1.3985-1.3966 1.3985.6257 1.3985 1.3966m18.7312 0c0 .77-.6265 1.3965-1.3985 1.3965s-1.3985-.6256-1.3985-1.3965a1.398 1.398 0 0 1 1.3985-1.3966c.772 0 1.3985.6257 1.3985 1.3966m18.7313 0c0 .77-.6265 1.3965-1.3985 1.3965s-1.3985-.6256-1.3985-1.3965.6265-1.3966 1.3985-1.3966 1.3985.6257 1.3985 1.3966m18.7314 0c0 .77-.6265 1.3965-1.3985 1.3965s-1.3985-.6256-1.3985-1.3965.6265-1.3966 1.3985-1.3966 1.3985.6257 1.3985 1.3966" stroke="none" fill="#cddaec"/><g fill-rule="nonzero"><path d="M230 1V0h-2v1h2zm-6 0V0h-2v1h2zm-6 0V0h-2v1h2zm-6 0V0h-2v1h2zm-6 0V0h-2v1h2zm-6 0V0h-2v1h2zm-6 0V0h-2v1h2zm-6 0V0h-2v1h2zm-6 0V0h-2v1h2zm-6 0V0h-2v1h2zm-6 0V0h-2v1h2zm-6 0V0h-2v1h2zm-6 0V0h-2v1h2zm-6 0V0h-2v1h2zm-6 0V0h-2v1h2zm-6 0V0h-2v1h2zm-6 0V0h-2v1h2zm-6 0V0h-2v1h2zm-6 0V0h-2v1h2zm-6 0V0h-2v1h2zm-6 0V0h-2v1h2zm-6 0V0h-2v1h2zm-6 0V0h-2v1h2zm-6 0V0h-2v1h2zm-6 0V0h-2v1h2zm-6 0V0h-2v1h2zm-6 0V0h-2v1h2zm-6 0V0h-2v1h2zm-6 0V0h-2v1h2zm-6 0V0h-2v1h2zm-6 0V0h-2v1h2zm-6 0V0h-2v1h2zm-6 0V0h-2v1h2zm-6 0V0h-2v1h2zm-6 0V0h-2v1h2zm-6 0V0h-2v1h2zm-6 0V0h-2v1h2zM8 1V0H6v1h2zM2 1V0H0v1h2zm228 44v-1h-2v1h2zm-6 0v-1h-2v1h2zm-6 0v-1h-2v1h2zm-6 0v-1h-2v1h2zm-6 0v-1h-2v1h2zm-6 0v-1h-2v1h2zm-6 0v-1h-2v1h2zm-6 0v-1h-2v1h2zm-6 0v-1h-2v1h2zm-6 0v-1h-2v1h2zm-6 0v-1h-2v1h2zm-6 0v-1h-2v1h2zm-6 0v-1h-2v1h2zm-6 0v-1h-2v1h2zm-6 0v-1h-2v1h2zm-6 0v-1h-2v1h2zm-6 0v-1h-2v1h2zm-6 0v-1h-2v1h2zm-6 0v-1h-2v1h2zm-6 0v-1h-2v1h2zm-6 0v-1h-2v1h2zm-6 0v-1h-2v1h2zm-6 0v-1h-2v1h2zm-6 0v-1h-2v1h2zm-6 0v-1h-2v1h2zm-6 0v-1h-2v1h2zm-6 0v-1h-2v1h2zm-6 0v-1h-2v1h2zm-6 0v-1h-2v1h2zm-6 0v-1h-2v1h2zm-6 0v-1h-2v1h2zm-6 0v-1h-2v1h2zm-6 0v-1h-2v1h2zm-6 0v-1h-2v1h2zm-6 0v-1h-2v1h2zm-6 0v-1h-2v1h2zm-6 0v-1h-2v1h2zm-6 0v-1H6v1h2zm-6 0v-1H0v1h2z" fill="url(#B)" stroke="none" transform="matrix(-1 0 0 -1 840.0814 391.7802)"/><path d="M697.6694 327.2802v13.5h-1v-13.5z" fill="#a5bff1" stroke="none"/><path d="M697.6694 339.7802v1h-14.5v-1z" fill="#a5c0f2" stroke="none"/><path d="M796.6694 411.2802v-13.5h1v13.5z" fill="#a5bff1" stroke="none"/><path d="M796.6694 398.7802v-1h14.5v1z" fill="#a5c0f2" stroke="none"/><path d="M704.6694 317.7802h-1v2h1v-2zm0 6h-1v2h1v-2zm0 6h-1v2h1v-2zm0 6h-1v2h1v-2zm0 6h-1v2h1v-2zm0 6h-1v2h1v-2zm0 6h-1v2h1v-2zm0 6h-1v2h1v-2zm0 6h-1v2h1v-2zm0 6h-1v2h1v-2zm0 6h-1v2h1v-2zm0 6h-1v2h1v-2zm0 6h-1v2h1v-2zm0 6h-1v2h1v-2zm0 6h-1v2h1v-2zm0 6h-1v2h1v-2zm0 6h-1v2h1v-2zm0 6h-1v2h1v-2zm86-102h-1v2h1v-2zm0 6h-1v2h1v-2zm0 6h-1v2h1v-2zm0 6h-1v2h1v-2zm0 6h-1v2h1v-2zm0 6h-1v2h1v-2zm0 6h-1v2h1v-2zm0 6h-1v2h1v-2zm0 6h-1v2h1v-2zm0 6h-1v2h1v-2zm0 6h-1v2h1v-2zm0 6h-1v2h1v-2zm0 6h-1v2h1v-2zm0 6h-1v2h1v-2zm0 6h-1v2h1v-2zm0 6h-1v2h1v-2zm0 6h-1v2h1v-2zm0 6h-1v2h1v-2z" fill="url(#A)" stroke="none"/><path d="M485.5 581.5v-1h-2v1h2zm-6 0v-1h-2v1h2zm-6 0v-1h-2v1h2zm-6 0v-1h-2v1h2zm-6 0v-1h-2v1h2zm-6 0v-1h-2v1h2zm-6 0v-1h-2v1h2zm-6 0v-1h-2v1h2zm-6 0v-1h-2v1h2zm-6 0v-1h-2v1h2zm-6 0v-1h-2v1h2zm-6 0v-1h-2v1h2zm-6 0v-1h-2v1h2zm-6 0v-1h-2v1h2zm-6 0v-1h-2v1h2zm-6 0v-1h-2v1h2zm-6 0v-1h-2v1h2zm-6 0v-1h-2v1h2zm-6 0v-1h-2v1h2zm-6 0v-1h-2v1h2zm-6 0v-1h-2v1h2zm-6 0v-1h-2v1h2zm-6 0v-1h-2v1h2zm-6 0v-1h-2v1h2zm-6 0v-1h-2v1h2zm-6 0v-1h-2v1h2zm-6 0v-1h-2v1h2zm-6 0v-1h-2v1h2zm-6 0v-1h-2v1h2zm-6 0v-1h-2v1h2zm-6 0v-1h-2v1h2zm-6 0v-1h-2v1h2zm-6 0v-1h-2v1h2zm-6 0v-1h-2v1h2zm-6 0v-1h-2v1h2zm-6 0v-1h-2v1h2zm-6 0v-1h-2v1h2zm-6 0v-1h-2v1h2zm-6 0v-1h-2v1h2zm228 44v-1h-2v1h2zm-6 0v-1h-2v1h2zm-6 0v-1h-2v1h2zm-6 0v-1h-2v1h2zm-6 0v-1h-2v1h2zm-6 0v-1h-2v1h2zm-6 0v-1h-2v1h2zm-6 0v-1h-2v1h2zm-6 0v-1h-2v1h2zm-6 0v-1h-2v1h2zm-6 0v-1h-2v1h2zm-6 0v-1h-2v1h2zm-6 0v-1h-2v1h2zm-6 0v-1h-2v1h2zm-6 0v-1h-2v1h2zm-6 0v-1h-2v1h2zm-6 0v-1h-2v1h2zm-6 0v-1h-2v1h2zm-6 0v-1h-2v1h2zm-6 0v-1h-2v1h2zm-6 0v-1h-2v1h2zm-6 0v-1h-2v1h2zm-6 0v-1h-2v1h2zm-6 0v-1h-2v1h2zm-6 0v-1h-2v1h2zm-6 0v-1h-2v1h2zm-6 0v-1h-2v1h2zm-6 0v-1h-2v1h2zm-6 0v-1h-2v1h2zm-6 0v-1h-2v1h2zm-6 0v-1h-2v1h2zm-6 0v-1h-2v1h2zm-6 0v-1h-2v1h2zm-6 0v-1h-2v1h2zm-6 0v-1h-2v1h2zm-6 0v-1h-2v1h2zm-6 0v-1h-2v1h2zm-6 0v-1h-2v1h2zm-6 0v-1h-2v1h2z" stroke="none" fill="url(#B)"/></g></svg>